PathFileType	4	(X/Y/Z)	OpenSim_Sub05_CSStiffKnee_Accel.trc
DataRate	CameraRate	NumFrames	NumMarkers	Units	OrigDataRate	OrigDataStartFrame	OrigNumFrames
100	100	37	8	m	100	4219	11248
Frame#	Time	torso_imu_offset_imu	pelvis_imu_offset_imu	tibia_r_imu_offset_imu	femur_r_imu_offset_imu	tibia_l_imu_offset_imu	femur_l_imu_offset_imu	toes_r_imu_offset_imu	toes_l_imu_offset_imu
				X1	Y1	Z1	X2	Y2	Z2	X3	Y3	Z3	X4	Y4	Z4	X5	Y5	Z5	X6	Y6	Z6	X7	Y7	Z7	X8		Y8	Z8	

4219	42.18000000	9.42685321	0.09314647	4.69321883	8.90806043	0.99728736	2.96244856	9.75440410	2.59158732	-0.44502976	9.05698117	-1.89119695	1.90185201	10.00454747	-4.16574690	1.21755265	9.13338020	-0.16182446	1.84864813	6.20690573	-1.80427003	7.60358870	9.23282505	1.42529940	11.54063444
4220	42.19000000	9.44111873	0.08000132	4.78294336	8.79275030	0.98751842	2.78835402	9.80727469	2.26533964	-0.48313401	8.79861826	-1.30863935	2.47739719	10.17165172	-4.20625124	0.99082995	9.10590419	-0.35344913	1.75456379	6.14322287	-1.85827601	7.64521972	9.40579123	1.51823976	10.97614266
4221	42.20000000	9.42991662	0.02081950	4.89389486	8.77759836	0.86813195	2.61538161	9.81095628	1.87255188	-0.36915407	9.19050640	-1.14805313	2.50688811	10.42953963	-4.01139640	0.73845269	9.36035667	-0.61083191	1.73687045	6.30605152	-1.72575856	7.56388928	9.65193353	1.50988842	10.19787905
4222	42.21000000	9.37149017	-0.08177671	4.96936734	8.93917425	0.67415203	2.56718892	9.79068533	1.55125861	-0.26727196	9.32584614	-1.14719051	2.17847788	10.29246924	-3.91935467	0.66055106	9.49049127	-0.79720347	1.87024067	6.49032566	-1.68554299	7.38661377	10.18273454	1.56162805	9.43283576
4223	42.22000000	9.33924757	-0.12396467	4.96817805	9.00234500	0.46411068	2.55375471	9.89934192	1.56216268	-0.23783285	9.37012955	-0.98158835	1.98394986	10.03491553	-4.19711004	0.50715184	9.52440288	-0.69280907	1.96427489	6.37728972	-1.64025697	7.57995112	10.51287019	1.52501437	8.47900042
4224	42.23000000	9.37895018	-0.07962773	5.01554146	9.09381250	0.33334275	2.41787410	10.17155650	1.52955868	-0.03521627	9.59659968	-1.10289372	1.80170104	9.82147552	-4.44445517	-0.05037929	9.28679123	-0.52200373	2.03910540	6.34124947	-1.45092412	7.66462212	10.66494057	1.48582061	7.49546271
4225	42.24000000	9.44918546	0.02030633	4.90324086	9.32142873	0.28295044	2.27952651	10.21307094	1.75994585	0.16439217	9.77795749	-1.62247840	1.61163948	9.60305165	-4.28164565	-0.41106868	9.30096859	-0.41277838	2.38874063	6.39413226	-1.34100641	7.61713965	11.22541214	1.73323620	6.95262426
4226	42.25000000	9.47053159	0.11799726	4.85036884	9.50497056	0.34277010	2.24658272	10.34535710	1.91585667	0.23592947	9.79596911	-2.20126655	1.67491981	9.42827986	-4.28148499	-0.53439663	9.34919865	-0.14480788	2.72595297	6.45457586	-1.32737573	7.63144366	11.51837186	1.72447070	6.55588676
4227	42.26000000	9.52225905	0.12278611	4.90567589	9.73868929	0.44994152	2.21617873	10.74457979	1.42584835	0.37196219	9.74225644	-2.67492214	1.92766955	9.21169676	-4.65259166	-0.90223994	9.09686756	0.28295738	2.54521251	6.38496406	-1.11426641	7.72642760	11.44172079	1.43464488	6.23578709
4228	42.27000000	9.64334633	0.15932067	4.96320634	9.96008102	0.60573430	2.15417599	11.09712438	0.79189993	0.57500238	9.79907051	-2.95338765	2.26047587	9.28102745	-4.92069738	-1.11527497	8.85332799	0.48294746	2.09989614	6.34039664	-0.91425038	7.86018793	11.57626559	1.43805654	6.13057649
4229	42.28000000	9.75601613	0.28194482	5.05660951	10.04952399	0.80913776	2.12391667	11.17050257	0.33923031	0.58220478	9.98512803	-2.87813113	2.28950935	9.29294342	-5.08339793	-1.06376304	8.77770822	0.21671476	1.58283607	6.30161749	-1.08652645	7.94379154	11.84836823	1.37737609	5.97354532
4230	42.29000000	9.85922916	0.34161156	5.15406887	9.96862552	0.86592104	2.06314244	11.25063397	-0.49988392	0.58411774	10.00142538	-2.54929907	2.36646611	9.05614937	-5.15432140	-1.08767748	8.70190302	-0.21268527	1.10435108	6.46068601	-1.24298094	7.87001252	12.06673725	1.09611771	5.73822487
4231	42.30000000	9.88556387	0.22759644	5.32011752	9.78869042	0.77721122	2.02418420	11.49852042	-0.95008601	0.55841112	10.04595221	-2.31027695	2.68872523	8.88243972	-4.95776672	-1.08620367	8.46486221	-0.54241057	0.77090637	6.43746423	-1.11495281	8.01228087	12.20680727	1.06766545	5.36352382
4232	42.31000000	9.72089274	-0.07974557	5.26698331	9.62774005	0.61436683	1.95300425	11.71684198	-0.73606278	0.76349428	10.27648277	-2.65971926	2.69647312	8.67564939	-5.01178546	-1.10836258	8.27992289	-0.81072484	0.61514131	6.28924345	-1.21029121	8.01031749	12.06518231	1.19493125	4.89283448
4233	42.32000000	9.53742319	-0.33096027	5.32129961	9.41785315	0.30865248	1.85135853	11.89102015	-0.68155749	1.15092627	10.22797521	-3.46855664	2.45907056	8.50649524	-5.18678545	-1.32000974	8.04145671	-0.94748858	0.66317465	6.34432998	-1.25754459	8.03410441	11.94938201	0.42467791	4.47197700
4234	42.33000000	9.41489426	-0.41640371	5.35318100	9.14440512	-0.00960386	1.77444825	11.75810790	-0.78218563	1.47257139	9.87961752	-4.16187179	2.28649464	8.44499089	-5.03271425	-1.44643696	7.76334176	-0.89819923	0.89794783	6.55667339	-0.87706443	7.92653961	11.67932980	3.24821198	4.20746751
4235	42.34000000	9.19772451	-0.39103752	5.16599179	8.85108763	-0.19697353	1.77635821	11.75446374	-1.27707075	1.75991942	9.69597282	-4.73262668	2.08112550	8.65271243	-4.42229379	-1.30739304	7.75978926	-0.79166749	1.17979941	6.78062247	-0.62852195	7.80831591	11.92940043	4.04461004	2.07870746
4236	42.35000000	8.88996145	-0.26092909	5.23516287	8.67415837	-0.30941788	1.91745541	12.28790712	-2.44237237	1.90310842	9.55089219	-5.20580711	1.92315073	9.50583925	-3.44234471	-0.78714364	7.83526160	-0.64367055	1.22620842	6.77975461	-0.82083553	8.01766512	14.83519271	-1.93569785	-2.08991021
4237	42.36000000	8.69416694	-0.11150299	5.37438700	8.49745890	-0.35358894	2.14822366	13.14227613	-4.23106864	2.02684428	9.33265893	-5.15084964	2.18894472	10.20050245	-3.57956188	0.77894346	7.85169211	-0.32803706	0.84739779	6.57863447	-1.14751505	8.33574471	16.82076122	-1.89172510	-6.10925097
4238	42.37000000	8.68170354	0.04685141	5.45500124	8.39028529	-0.35080249	2.54780195	13.97548921	-5.88907945	2.41466660	9.34832671	-4.67595570	2.70045240	10.13882718	-4.75433902	1.83515518	7.78795383	0.04235217	0.37232344	6.32869662	-1.65690289	8.65596227	14.77686830	0.78894711	0.53623095
4239	42.38000000	8.66656639	0.13329484	5.40565227	8.52963756	-0.40191361	3.23362242	14.71998827	-6.69957231	3.02242969	9.42592933	-4.24022807	3.08381292	9.67711794	-5.53439966	0.84546969	8.72743330	0.35395927	0.44485759	6.18595255	-2.18336715	9.13596771	14.36513072	0.99669615	16.47149661
4240	42.39000000	8.66762552	0.19982623	5.49489255	8.86442147	-0.73223783	3.95495062	15.37679485	-6.38817906	3.37653040	9.44899532	-3.86131352	4.23285202	10.61241432	-3.69657335	2.09879118	11.93676059	0.14928626	1.09515494	6.11002119	-2.49058025	9.94764038	10.71700621	-0.96457496	20.82622706
4241	42.40000000	8.99121191	0.57389450	5.89792317	9.31148679	-1.41699921	4.59577586	16.20718634	-5.65886869	3.44475573	9.85436599	-2.81677533	6.26784749	13.94606378	1.96558692	6.44936371	15.49471420	-0.57324644	1.97576590	5.92954357	-3.09109399	10.72617752	6.08784185	-3.79180668	15.98713478
4242	42.41000000	9.53380122	1.14681553	6.06313916	9.85360648	-2.40191482	5.19235921	17.02263580	-4.44162732	3.57520093	10.51436208	-2.29997464	6.26379528	14.24905181	2.53117641	6.60617696	15.71554421	-1.16439937	2.39227357	6.49353530	-3.56548643	11.49585403	8.90698253	0.77470118	16.10245509
4243	42.42000000	9.73029498	1.55270976	5.98908557	10.54098242	-3.46626663	5.17885332	17.39044509	-3.52366993	2.79300891	10.41935682	-3.79199296	3.96587016	10.80343625	-3.91286729	2.45879534	13.30084895	-1.58670595	2.14228508	10.16176649	-3.81641878	11.38745023	9.61315126	3.57114107	15.16257099
4244	42.43000000	9.06065663	1.69024491	5.93123882	10.87281660	-3.83973816	5.13147376	17.14977446	-3.43380858	1.23908917	9.69529403	-4.91692113	2.48832533	9.42667832	-7.02655883	-0.51546778	11.57264226	-0.74377908	1.99210473	14.38236736	-3.06415693	11.36956579	6.67784567	0.35207443	11.26294721
4245	42.44000000	7.96582413	2.06105021	5.66431678	10.38968270	-3.36151434	4.93415850	15.98203257	-2.50907211	-0.48645207	9.41173795	-4.14192750	2.72488901	9.17684922	-6.20782226	-1.18073207	10.24946626	1.18348112	1.87931012	18.08444432	-2.82132823	10.45164211	6.38389619	0.08260423	11.31983142
4246	42.45000000	7.23656661	2.95830149	5.23723095	9.41197037	-2.38685210	4.18327497	14.00958914	-0.44143448	-2.02716674	10.03217918	-1.80096999	4.16877887	8.63571079	-4.16899878	-0.34247968	8.47974607	1.63327947	1.20583991	21.88549323	-4.30097025	10.30879802	7.02259245	1.71076165	11.63805811
4247	42.46000000	7.06233618	3.83978644	4.89955304	8.33433309	-1.23192227	3.59140149	11.39780490	3.77704703	-2.21765508	10.80584346	0.94287008	6.00422862	9.12693250	-1.41510491	-0.95152233	8.03150322	-0.22317323	-0.48749551	18.54385489	-7.32697275	9.62717492	5.69239989	3.33723478	10.78359140
4248	42.47000000	7.34602029	4.21647800	4.69650576	7.58587501	-0.60905932	3.10656207	9.20695630	8.64320598	-2.49845644	11.09780536	2.40059666	5.19166303	9.73714909	-0.63111711	-2.44107950	8.87514032	-2.85038430	-2.25304124	17.40524673	-9.69039922	8.16767242	4.50077851	4.43968184	11.22340092
4249	42.48000000	7.98619214	4.15056130	4.82050679	7.42397186	-0.68555569	2.87706584	8.55599068	10.93455979	-2.68169905	10.90465722	2.10770954	2.47778428	10.05645264	-1.94568327	-2.45384253	9.49071376	-4.23775006	-2.97870265	11.11905321	-5.39219274	10.93053864	4.95864332	3.52151547	11.64272418
4250	42.49000000	8.98691437	3.96048043	5.14238995	8.01137767	-1.49567353	2.99304243	8.49314036	11.89817308	-2.13084874	10.92122401	0.10539593	1.23115598	10.42101971	-3.50396155	-2.67871361	10.08307551	-3.53062408	-2.71760080	8.41388562	-3.95600847	20.83589400	5.31376858	3.51644114	11.39056175
4251	42.50000000	9.96340410	3.67599088	5.47285591	8.97454110	-2.39736345	3.23934081	6.75693788	11.97508936	-2.45237688	11.72672813	-2.12544736	1.80939919	10.31989165	-4.08866489	-3.24277202	10.40675083	-1.39229836	-1.69232291	9.49469406	-8.61755548	25.43825855	4.83698636	4.23215246	11.28774031
4252	42.51000000	10.64893947	3.41255945	5.83951378	9.91648007	-2.87359756	3.43183832	3.46558564	9.70807047	-1.93611638	12.89299698	-3.42874433	3.85257865	10.25724846	-2.91894401	-2.01368057	10.27749356	0.64338165	-0.82220645	-0.04623431	-10.22522145	20.23086442	5.33397234	2.91643777	11.15505651
4253	42.52000000	10.98810491	3.21736258	5.99909758	11.09928975	-3.07381894	3.54109817	1.16792796	6.59748728	0.17546152	13.33352269	-4.12506992	5.77034408	10.09666727	-1.67697269	-0.39790547	9.92670570	1.26951612	-0.51514042	-1.90366991	-9.63476958	18.31014203	5.72851502	2.06280823	10.96313726
4254	42.53000000	10.95710802	3.00445635	6.09087478	12.02394705	-2.74309418	3.52387588	0.82895742	4.72218619	0.20777317	12.54593751	-4.10769636	6.42213902	9.87925595	-1.83278322	-0.32007681	9.69461503	0.71325537	-0.29857888	-4.01430319	-5.76598613	16.86956120	5.05258244	2.19713869	11.22261630
4255	42.54000000	10.59983862	2.88440139	6.10001642	12.22877456	-2.12746084	3.39753520	1.79791499	3.32653623	-1.07567019	11.24103639	-3.28066276	5.80296721	10.01770592	-2.23809281	-0.31489590	10.05824956	0.09454040	-0.21196657	-4.91111733	-3.32183244	15.13703766	4.90192697	2.23436989	11.44874989
